<?xml version="1.0" encoding="utf-8"?>
<!-- Generator: Adobe Illustrator 24.0.2, SVG Export Plug-In . SVG Version: 6.00 Build 0)  -->
<svg version="1.1" id="Layer_1" xmlns="http://www.w3.org/2000/svg" xmlns:xlink="http://www.w3.org/1999/xlink" x="0px" y="0px"
	 viewBox="0 0 359.8 56.2" style="enable-background:new 0 0 359.8 56.2;" xml:space="preserve">
<style type="text/css">
	.st0{fill:#FAFAFA;}
	.st1{fill:#D0D0D0;}
	.st2{fill:#B0B0B0;}
	.st3{fill:#2CBDBE;}
	.st4{fill:#FFFFFF;}
</style>
<path class="st0" d="M41.7,27.1c0.6,0.7,0.6,1.7,0,2.4c-0.7,0.6-1.8,0.6-2.4-0.1c-0.2-0.2-0.3-0.4-0.4-0.6l-16.7-0.3
	c-0.3,0-0.1,0-2.1-0.4c1-0.4,1.4-0.4,1.7-0.4l17.1-0.2c0.1-0.2,0.2-0.4,0.4-0.5C40,26.4,41,26.5,41.7,27.1"/>
<g>
	<path class="st0" d="M37.7,31.4c-1.6-2.1-1.3-5,0.7-6.7c2-1.6,5-1.3,6.7,0.7c1.6,2,1.3,5-0.7,6.7C42.3,33.8,39.3,33.5,37.7,31.4"/>
</g>
<g>
	<path class="st1" d="M37.9,30.7c-1.4-1.8-1.1-4.3,0.7-5.8c1.8-1.4,4.4-1.2,5.8,0.6c1.4,1.7,1.1,4.3-0.7,5.8
		C41.9,32.7,39.3,32.5,37.9,30.7"/>
</g>
<g>
	<path class="st1" d="M38.2,30c-1.2-1.5-0.9-3.6,0.6-4.8c1.5-1.2,3.6-1,4.8,0.5c1.2,1.5,0.9,3.6-0.6,4.8
		C41.5,31.7,39.4,31.5,38.2,30"/>
</g>
<path class="st2" d="M38.6,29.2c-0.9-1.1-0.7-2.7,0.4-3.6c1.1-0.9,2.8-0.7,3.6,0.4c0.9,1.1,0.7,2.7-0.4,3.6
	C41.1,30.4,39.5,30.3,38.6,29.2"/>
<path class="st0" d="M39.5,27.6c-0.3-0.4-0.3-1,0.1-1.3c0.4-0.3,1-0.3,1.3,0.1c0.3,0.4,0.3,1-0.1,1.3C40.4,28.1,39.9,28,39.5,27.6"
	/>
<path class="st3" d="M21.6,28.2l4-2.7c0.5-7.2,2.9-13.8,6.9-19.4L0,28.2l32.5,22.1c-4-5.5-6.5-12.2-7-19.4L21.6,28.2z"/>
<path class="st0" d="M35.5,18.6l5.8-4l9.2,6.2l4.4-2.9l6.4-4.3l-6.4-4.4L41.3,0l-5.8,4l-3.1,2.1c-3.9,5.5-6.4,12.2-6.9,19.4
	L35.5,18.6z"/>
<path class="st0" d="M41.2,56.2l13.7-9.4l6.3-4.2l-6.3-4.3l-4.4-3c-3,2.1-6.1,4.1-9.2,6.3l-5.8-3.9l-10-6.8c0.5,7.2,3,13.9,7,19.4
	l3,2L41.2,56.2z"/>
<g>
	<path class="st4" d="M104.5,16v4c-2.5-2.5-5.4-3.8-8.8-3.8c-3.2,0-5.9,1.2-8.2,3.6c-2.3,2.4-3.4,5.2-3.4,8.4s1.1,6,3.4,8.4
		c2.3,2.4,5,3.6,8.3,3.6c3.3,0,6.2-1.3,8.7-3.8v4c-2.6,1.9-5.5,2.8-8.6,2.8c-4.1,0-7.6-1.4-10.6-4.3c-3-2.9-4.5-6.4-4.5-10.5
		c0-4.1,1.5-7.7,4.4-10.6c2.9-2.9,6.5-4.4,10.6-4.4C99.1,13.2,102,14.1,104.5,16z"/>
	<path class="st4" d="M113.1,13.1v17.7c0,1.1,0,1.9,0,2.3c0,0.5,0.1,1.1,0.3,2c0.2,0.9,0.5,1.6,0.9,2.1c0.6,0.8,1.5,1.5,2.5,2
		c1.1,0.5,2.2,0.7,3.3,0.7c1,0,2.1-0.2,3.1-0.7c1-0.5,1.9-1.1,2.5-1.9c0.4-0.5,0.8-1.2,1-2c0.2-0.8,0.4-1.4,0.4-1.9
		c0-0.5,0-1.3,0-2.2c0-0.2,0-0.4,0-0.5V13.1h3.2v18.6c0,1.8-0.2,3.4-0.5,4.5c-0.3,1.2-1,2.3-2,3.4c-2,2.2-4.6,3.3-7.8,3.3
		c-3,0-5.4-1-7.5-2.9c-1.1-1.1-1.9-2.3-2.3-3.6c-0.4-1.3-0.6-2.9-0.6-4.8V13.1H113.1z"/>
	<path class="st4" d="M143.8,16.1V43h-3.2V16.1h-7v-3h17.2v3H143.8z"/>
</g>
<g>
	<path class="st3" d="M256.7,13.2V43h-5.5V13.2H256.7z"/>
	<path class="st3" d="M284.1,43l-2.3-18.4h-0.1L275.3,43h-1.9l-6.2-18.4h-0.1L264.4,43h-5.2l4.6-29.8h3.9l7,18.6l6.7-18.6h4
		l3.8,29.8C289.2,43,284.1,43,284.1,43z"/>
	<path class="st3" d="M307.7,36.2h-9.8l-2.3,6.7h-5.8l11-29.8h4.3L315.7,43h-5.9L307.7,36.2z M306.1,31.7l-3.5-10.3h-0.1l-3.1,10.3
		H306.1z"/>
	<path class="st3" d="M330.2,27.2h12.2v0.7c0,2.1-0.3,4-0.8,5.7c-0.5,1.8-1.3,3.4-2.3,4.8c-1,1.4-2.4,2.5-4.1,3.3
		c-1.7,0.8-3.6,1.2-5.7,1.2c-2.6,0-5-0.7-7.1-2.1c-2.1-1.4-3.7-3.2-4.7-5.4c-1.1-2.2-1.6-4.7-1.6-7.3c0-4.2,1.3-7.7,3.8-10.6
		c2.6-2.9,5.9-4.4,10-4.4c2.4,0,4.6,0.6,6.6,1.8c2,1.2,3.5,2.8,4.6,5l-4.9,2.6c-0.6-1.3-1.4-2.4-2.6-3.2c-1.1-0.8-2.4-1.3-3.9-1.3
		c-2.5,0-4.4,1-5.8,3.1c-1.4,2.1-2.1,4.4-2.1,7c0,1.6,0.3,3.2,0.9,4.7c0.6,1.5,1.5,2.7,2.7,3.7c1.3,1,2.7,1.5,4.4,1.5
		c1.7,0,3.2-0.6,4.5-1.9c1.3-1.3,1.9-2.8,2-4.5h-6L330.2,27.2L330.2,27.2z"/>
	<path class="st3" d="M359.8,18h-9.1v7h8.8v4.8h-8.8v8.4h9.1V43h-14.6V13.2h14.6L359.8,18L359.8,18z"/>
</g>
<g>
	<path class="st4" d="M167.9,17.6c2.9-2.9,6.5-4.4,10.6-4.4c4.1,0,7.7,1.5,10.6,4.4c2.9,2.9,4.4,6.4,4.4,10.6
		c0,4.1-1.5,7.6-4.4,10.5c-2.9,2.9-6.5,4.3-10.6,4.3c-4.1,0-7.7-1.4-10.6-4.3c-2.9-2.9-4.4-6.4-4.4-10.5
		C163.5,24,164.9,20.5,167.9,17.6z M186.8,19.7c-2.3-2.3-5.1-3.5-8.4-3.5c-3.3,0-6.1,1.2-8.4,3.5c-2.3,2.3-3.4,5.1-3.4,8.4
		c0,3.3,1.2,6.1,3.5,8.4c2.3,2.3,5.1,3.5,8.3,3.5c3.3,0,6-1.2,8.3-3.5c2.3-2.3,3.5-5.1,3.5-8.4C190.3,24.9,189.1,22,186.8,19.7z"/>
	<path class="st4" d="M201,13.2v17.7c0,1.1,0,1.9,0,2.3c0,0.5,0.1,1.1,0.3,2c0.2,0.9,0.5,1.6,0.9,2.1c0.6,0.8,1.5,1.5,2.5,2
		c1.1,0.5,2.2,0.7,3.3,0.7c1,0,2.1-0.2,3.1-0.7c1-0.5,1.9-1.1,2.5-1.9c0.4-0.5,0.8-1.2,1-2c0.2-0.8,0.4-1.4,0.4-1.9
		c0-0.5,0-1.3,0-2.2c0-0.2,0-0.4,0-0.5V13.2h3.2v18.6c0,1.8-0.2,3.3-0.5,4.5s-1,2.3-2,3.4c-2,2.2-4.6,3.3-7.8,3.3
		c-3,0-5.4-1-7.4-2.9c-1.1-1.1-1.9-2.3-2.3-3.6c-0.4-1.3-0.6-2.9-0.6-4.8V13.2C197.7,13.2,201,13.2,201,13.2z"/>
	<path class="st4" d="M231.6,16.2V43h-3.2V16.2h-6.9v-3h17.2v3H231.6z"/>
</g>
</svg>
